<mxfile host="app.diagrams.net" modified="2023-02-10T06:51:10.115Z" agent="5.0 (Macintosh; Intel Mac OS X 10_15_7) AppleWebKit/537.36 (KHTML, like Gecko) Chrome/109.0.0.0 Safari/537.36" etag="VO9CK2s-g96xdYQb2Z9o" version="20.8.18" type="github">
  <diagram name="第 1 页" id="D-17xuheVjv5JnxC9wFS">
    <mxGraphModel dx="1196" dy="1845" grid="1" gridSize="10" guides="1" tooltips="1" connect="1" arrows="1" fold="1" page="1" pageScale="1" pageWidth="827" pageHeight="1169" math="0" shadow="0">
      <root>
        <mxCell id="0" />
        <mxCell id="1" parent="0" />
        <mxCell id="615jbKJBMybMMUp28HGp-36" value="" style="rounded=0;whiteSpace=wrap;html=1;" vertex="1" parent="1">
          <mxGeometry x="300" y="350" width="580" height="220" as="geometry" />
        </mxCell>
        <mxCell id="615jbKJBMybMMUp28HGp-30" value="" style="rounded=0;whiteSpace=wrap;html=1;" vertex="1" parent="1">
          <mxGeometry x="300" y="-100" width="900" height="390" as="geometry" />
        </mxCell>
        <mxCell id="615jbKJBMybMMUp28HGp-4" style="edgeStyle=orthogonalEdgeStyle;rounded=0;orthogonalLoop=1;jettySize=auto;html=1;entryX=0;entryY=0.5;entryDx=0;entryDy=0;" edge="1" parent="1" source="615jbKJBMybMMUp28HGp-1" target="615jbKJBMybMMUp28HGp-2">
          <mxGeometry relative="1" as="geometry" />
        </mxCell>
        <mxCell id="615jbKJBMybMMUp28HGp-1" value="GitLab" style="rounded=1;whiteSpace=wrap;html=1;fillColor=#dae8fc;strokeColor=#6c8ebf;" vertex="1" parent="1">
          <mxGeometry x="90" y="140" width="120" height="60" as="geometry" />
        </mxCell>
        <mxCell id="615jbKJBMybMMUp28HGp-11" style="edgeStyle=orthogonalEdgeStyle;rounded=0;orthogonalLoop=1;jettySize=auto;html=1;entryX=0;entryY=0.5;entryDx=0;entryDy=0;entryPerimeter=0;" edge="1" parent="1" source="615jbKJBMybMMUp28HGp-2" target="615jbKJBMybMMUp28HGp-6">
          <mxGeometry relative="1" as="geometry" />
        </mxCell>
        <mxCell id="615jbKJBMybMMUp28HGp-2" value="GitLab Webhook" style="rounded=1;whiteSpace=wrap;html=1;fillColor=#d5e8d4;strokeColor=#82b366;" vertex="1" parent="1">
          <mxGeometry x="330" y="90" width="120" height="60" as="geometry" />
        </mxCell>
        <mxCell id="615jbKJBMybMMUp28HGp-13" style="edgeStyle=orthogonalEdgeStyle;rounded=0;orthogonalLoop=1;jettySize=auto;html=1;" edge="1" parent="1" source="615jbKJBMybMMUp28HGp-3" target="615jbKJBMybMMUp28HGp-6">
          <mxGeometry relative="1" as="geometry">
            <mxPoint x="500" y="240" as="targetPoint" />
          </mxGeometry>
        </mxCell>
        <mxCell id="615jbKJBMybMMUp28HGp-3" value="Checkpoint&amp;nbsp;Webhook" style="rounded=1;whiteSpace=wrap;html=1;fillColor=#d5e8d4;strokeColor=#82b366;" vertex="1" parent="1">
          <mxGeometry x="330" y="210" width="120" height="60" as="geometry" />
        </mxCell>
        <mxCell id="615jbKJBMybMMUp28HGp-6" value="DB" style="shape=cylinder3;whiteSpace=wrap;html=1;boundedLbl=1;backgroundOutline=1;size=15;fillColor=#dae8fc;strokeColor=#6c8ebf;" vertex="1" parent="1">
          <mxGeometry x="550" y="100" width="90" height="160" as="geometry" />
        </mxCell>
        <mxCell id="615jbKJBMybMMUp28HGp-14" value="List" style="swimlane;fontStyle=0;childLayout=stackLayout;horizontal=1;startSize=30;horizontalStack=0;resizeParent=1;resizeParentMax=0;resizeLast=0;collapsible=1;marginBottom=0;whiteSpace=wrap;html=1;" vertex="1" parent="1">
          <mxGeometry x="680" y="110" width="460" height="120" as="geometry" />
        </mxCell>
        <mxCell id="615jbKJBMybMMUp28HGp-15" value="(project_id, merge_id, &lt;b&gt;repo_addr, merge_commit, last_commit&lt;/b&gt;) -&amp;gt; scan_result" style="text;strokeColor=none;fillColor=none;align=left;verticalAlign=middle;spacingLeft=4;spacingRight=4;overflow=hidden;points=[[0,0.5],[1,0.5]];portConstraint=eastwest;rotatable=0;whiteSpace=wrap;html=1;" vertex="1" parent="615jbKJBMybMMUp28HGp-14">
          <mxGeometry y="30" width="460" height="30" as="geometry" />
        </mxCell>
        <mxCell id="615jbKJBMybMMUp28HGp-16" value="(project_id, merge_id,&amp;nbsp;&lt;b style=&quot;border-color: var(--border-color);&quot;&gt;repo_addr, merge_commit, last_commit&lt;/b&gt;) -&amp;gt; scan_result" style="text;strokeColor=none;fillColor=none;align=left;verticalAlign=middle;spacingLeft=4;spacingRight=4;overflow=hidden;points=[[0,0.5],[1,0.5]];portConstraint=eastwest;rotatable=0;whiteSpace=wrap;html=1;" vertex="1" parent="615jbKJBMybMMUp28HGp-14">
          <mxGeometry y="60" width="460" height="30" as="geometry" />
        </mxCell>
        <mxCell id="615jbKJBMybMMUp28HGp-17" value="(project_id, merge_id,&amp;nbsp;&lt;b style=&quot;border-color: var(--border-color);&quot;&gt;repo_addr, merge_commit, last_commit&lt;/b&gt;) -&amp;gt; scan_result" style="text;strokeColor=none;fillColor=none;align=left;verticalAlign=middle;spacingLeft=4;spacingRight=4;overflow=hidden;points=[[0,0.5],[1,0.5]];portConstraint=eastwest;rotatable=0;whiteSpace=wrap;html=1;" vertex="1" parent="615jbKJBMybMMUp28HGp-14">
          <mxGeometry y="90" width="460" height="30" as="geometry" />
        </mxCell>
        <mxCell id="615jbKJBMybMMUp28HGp-26" style="rounded=0;orthogonalLoop=1;jettySize=auto;html=1;entryX=0;entryY=0.5;entryDx=0;entryDy=0;edgeStyle=elbowEdgeStyle;" edge="1" parent="1" source="615jbKJBMybMMUp28HGp-18" target="615jbKJBMybMMUp28HGp-21">
          <mxGeometry relative="1" as="geometry" />
        </mxCell>
        <mxCell id="615jbKJBMybMMUp28HGp-18" value="before release" style="rounded=1;whiteSpace=wrap;html=1;fillColor=#ffe6cc;strokeColor=#d79b00;" vertex="1" parent="1">
          <mxGeometry x="330" y="390" width="120" height="60" as="geometry" />
        </mxCell>
        <mxCell id="615jbKJBMybMMUp28HGp-27" style="edgeStyle=elbowEdgeStyle;rounded=0;orthogonalLoop=1;jettySize=auto;html=1;entryX=0;entryY=0.5;entryDx=0;entryDy=0;" edge="1" parent="1" source="615jbKJBMybMMUp28HGp-21" target="615jbKJBMybMMUp28HGp-22">
          <mxGeometry relative="1" as="geometry" />
        </mxCell>
        <mxCell id="615jbKJBMybMMUp28HGp-28" style="edgeStyle=elbowEdgeStyle;rounded=0;orthogonalLoop=1;jettySize=auto;html=1;entryX=0;entryY=0.5;entryDx=0;entryDy=0;" edge="1" parent="1" source="615jbKJBMybMMUp28HGp-21" target="615jbKJBMybMMUp28HGp-23">
          <mxGeometry relative="1" as="geometry" />
        </mxCell>
        <mxCell id="615jbKJBMybMMUp28HGp-21" value="if critical/high vuln exist" style="rhombus;whiteSpace=wrap;html=1;fillColor=#f5f5f5;fontColor=#333333;strokeColor=#666666;" vertex="1" parent="1">
          <mxGeometry x="500" y="375" width="140" height="90" as="geometry" />
        </mxCell>
        <mxCell id="615jbKJBMybMMUp28HGp-22" value="continue pipeline" style="rounded=1;whiteSpace=wrap;html=1;fillColor=#ffe6cc;strokeColor=#d79b00;" vertex="1" parent="1">
          <mxGeometry x="690" y="380" width="120" height="60" as="geometry" />
        </mxCell>
        <mxCell id="615jbKJBMybMMUp28HGp-23" value="block pipeline" style="rounded=1;whiteSpace=wrap;html=1;fillColor=#f8cecc;strokeColor=#b85450;" vertex="1" parent="1">
          <mxGeometry x="690" y="465" width="120" height="60" as="geometry" />
        </mxCell>
        <mxCell id="615jbKJBMybMMUp28HGp-24" value="(&lt;b&gt;report_addr, commit_id&lt;/b&gt;)" style="text;strokeColor=none;fillColor=none;align=left;verticalAlign=middle;spacingLeft=4;spacingRight=4;overflow=hidden;points=[[0,0.5],[1,0.5]];portConstraint=eastwest;rotatable=0;whiteSpace=wrap;html=1;" vertex="1" parent="1">
          <mxGeometry x="220" y="320" width="175" height="20" as="geometry" />
        </mxCell>
        <mxCell id="615jbKJBMybMMUp28HGp-31" value="ASC(Application Security Console)" style="text;html=1;strokeColor=none;fillColor=none;align=center;verticalAlign=middle;whiteSpace=wrap;rounded=0;" vertex="1" parent="1">
          <mxGeometry x="795" y="-85" width="230" height="30" as="geometry" />
        </mxCell>
        <mxCell id="615jbKJBMybMMUp28HGp-35" value="" style="endArrow=none;dashed=1;html=1;rounded=0;entryX=0.25;entryY=1;entryDx=0;entryDy=0;exitX=0.25;exitY=0;exitDx=0;exitDy=0;strokeColor=#0066CC;" edge="1" parent="1" source="615jbKJBMybMMUp28HGp-30" target="615jbKJBMybMMUp28HGp-30">
          <mxGeometry width="50" height="50" relative="1" as="geometry">
            <mxPoint x="590" y="360" as="sourcePoint" />
            <mxPoint x="640" y="310" as="targetPoint" />
          </mxGeometry>
        </mxCell>
        <mxCell id="615jbKJBMybMMUp28HGp-37" value="Space Jenkins Pipeline" style="text;html=1;strokeColor=none;fillColor=none;align=center;verticalAlign=middle;whiteSpace=wrap;rounded=0;" vertex="1" parent="1">
          <mxGeometry x="370" y="530" width="230" height="30" as="geometry" />
        </mxCell>
        <mxCell id="615jbKJBMybMMUp28HGp-38" value="http request" style="text;html=1;strokeColor=none;fillColor=none;align=center;verticalAlign=middle;whiteSpace=wrap;rounded=0;" vertex="1" parent="1">
          <mxGeometry x="255" y="290" width="80" height="30" as="geometry" />
        </mxCell>
        <mxCell id="615jbKJBMybMMUp28HGp-39" value="http request" style="text;html=1;strokeColor=none;fillColor=none;align=center;verticalAlign=middle;whiteSpace=wrap;rounded=0;" vertex="1" parent="1">
          <mxGeometry x="210" y="90" width="80" height="30" as="geometry" />
        </mxCell>
        <mxCell id="615jbKJBMybMMUp28HGp-41" value="" style="endArrow=classic;startArrow=classic;html=1;rounded=0;strokeColor=#0066CC;entryX=0.5;entryY=1;entryDx=0;entryDy=0;edgeStyle=orthogonalEdgeStyle;exitX=0.5;exitY=0;exitDx=0;exitDy=0;" edge="1" parent="1" source="615jbKJBMybMMUp28HGp-18" target="615jbKJBMybMMUp28HGp-3">
          <mxGeometry width="50" height="50" relative="1" as="geometry">
            <mxPoint x="360" y="380" as="sourcePoint" />
            <mxPoint x="414" y="320" as="targetPoint" />
            <Array as="points" />
          </mxGeometry>
        </mxCell>
        <mxCell id="615jbKJBMybMMUp28HGp-42" value="{&quot;status&quot;: &quot;ok&quot;, data: {&quot;critica&quot;:1, &quot;high&quot;: 1, &quot;total&quot;: 2}}" style="text;strokeColor=none;fillColor=none;align=left;verticalAlign=middle;spacingLeft=4;spacingRight=4;overflow=hidden;points=[[0,0.5],[1,0.5]];portConstraint=eastwest;rotatable=0;whiteSpace=wrap;html=1;" vertex="1" parent="1">
          <mxGeometry x="397.5" y="320" width="312.5" height="20" as="geometry" />
        </mxCell>
        <mxCell id="615jbKJBMybMMUp28HGp-43" value="http response" style="text;html=1;strokeColor=none;fillColor=none;align=center;verticalAlign=middle;whiteSpace=wrap;rounded=0;" vertex="1" parent="1">
          <mxGeometry x="432.5" y="290" width="77.5" height="30" as="geometry" />
        </mxCell>
        <mxCell id="615jbKJBMybMMUp28HGp-52" style="edgeStyle=orthogonalEdgeStyle;rounded=0;orthogonalLoop=1;jettySize=auto;html=1;entryX=1;entryY=0.5;entryDx=0;entryDy=0;strokeColor=#0066CC;" edge="1" parent="1" source="615jbKJBMybMMUp28HGp-45" target="615jbKJBMybMMUp28HGp-51">
          <mxGeometry relative="1" as="geometry" />
        </mxCell>
        <mxCell id="615jbKJBMybMMUp28HGp-45" value="Security Scan" style="rounded=0;whiteSpace=wrap;html=1;fillColor=#dae8fc;strokeColor=#6c8ebf;" vertex="1" parent="1">
          <mxGeometry x="535" y="-55" width="120" height="60" as="geometry" />
        </mxCell>
        <mxCell id="615jbKJBMybMMUp28HGp-47" value="" style="endArrow=classic;startArrow=classic;html=1;rounded=0;strokeColor=#0066CC;entryX=0.5;entryY=1;entryDx=0;entryDy=0;exitX=0.5;exitY=0;exitDx=0;exitDy=0;exitPerimeter=0;" edge="1" parent="1" source="615jbKJBMybMMUp28HGp-6" target="615jbKJBMybMMUp28HGp-45">
          <mxGeometry width="50" height="50" relative="1" as="geometry">
            <mxPoint x="560" y="90" as="sourcePoint" />
            <mxPoint x="610" y="40" as="targetPoint" />
          </mxGeometry>
        </mxCell>
        <mxCell id="615jbKJBMybMMUp28HGp-48" value="get task" style="text;html=1;strokeColor=none;fillColor=none;align=center;verticalAlign=middle;whiteSpace=wrap;rounded=0;" vertex="1" parent="1">
          <mxGeometry x="510" y="20" width="60" height="30" as="geometry" />
        </mxCell>
        <mxCell id="615jbKJBMybMMUp28HGp-49" value="save scan_result" style="text;html=1;strokeColor=none;fillColor=none;align=center;verticalAlign=middle;whiteSpace=wrap;rounded=0;" vertex="1" parent="1">
          <mxGeometry x="590" y="20" width="110" height="30" as="geometry" />
        </mxCell>
        <mxCell id="615jbKJBMybMMUp28HGp-57" style="edgeStyle=orthogonalEdgeStyle;rounded=0;orthogonalLoop=1;jettySize=auto;html=1;entryX=1;entryY=0.5;entryDx=0;entryDy=0;strokeColor=#0066CC;" edge="1" parent="1" source="615jbKJBMybMMUp28HGp-51" target="615jbKJBMybMMUp28HGp-55">
          <mxGeometry relative="1" as="geometry" />
        </mxCell>
        <mxCell id="615jbKJBMybMMUp28HGp-51" value="if critical/high vuln exist" style="rhombus;whiteSpace=wrap;html=1;fillColor=#f5f5f5;fontColor=#333333;strokeColor=#666666;" vertex="1" parent="1">
          <mxGeometry x="300" y="-70" width="140" height="90" as="geometry" />
        </mxCell>
        <mxCell id="615jbKJBMybMMUp28HGp-59" style="edgeStyle=orthogonalEdgeStyle;rounded=0;orthogonalLoop=1;jettySize=auto;html=1;strokeColor=#0066CC;" edge="1" parent="1" source="615jbKJBMybMMUp28HGp-55" target="615jbKJBMybMMUp28HGp-1">
          <mxGeometry relative="1" as="geometry" />
        </mxCell>
        <mxCell id="615jbKJBMybMMUp28HGp-55" value="Comment in MR" style="rounded=1;whiteSpace=wrap;html=1;fillColor=#d5e8d4;strokeColor=#82b366;" vertex="1" parent="1">
          <mxGeometry x="90" y="-55" width="120" height="60" as="geometry" />
        </mxCell>
        <mxCell id="615jbKJBMybMMUp28HGp-58" value="Yes" style="text;html=1;strokeColor=none;fillColor=none;align=center;verticalAlign=middle;whiteSpace=wrap;rounded=0;" vertex="1" parent="1">
          <mxGeometry x="230" y="-60" width="60" height="30" as="geometry" />
        </mxCell>
      </root>
    </mxGraphModel>
  </diagram>
</mxfile>
